<?xml version="1.0" encoding="utf-8"?>
<!-- Generator: Adobe Illustrator 26.4.1, SVG Export Plug-In . SVG Version: 6.00 Build 0)  -->
<svg version="1.1" id="图层_1" xmlns="http://www.w3.org/2000/svg" xmlns:xlink="http://www.w3.org/1999/xlink" x="0px" y="0px"
	 viewBox="0 0 40 40" style="enable-background:new 0 0 40 40;" xml:space="preserve">
<style type="text/css">
	.st0{filter:url(#Adobe_OpacityMaskFilter);}
	.st1{fill-rule:evenodd;clip-rule:evenodd;fill:#FFFFFF;}
	.st2{mask:url(#git-b_00000108278513630924043880000014441394190539519160_);fill-rule:evenodd;clip-rule:evenodd;fill:#DE4C36;}
	.st3{fill-rule:evenodd;clip-rule:evenodd;fill:#6E6E6E;}
</style>
<g transform="translate(4 4)">
	<defs>
		<filter id="Adobe_OpacityMaskFilter" filterUnits="userSpaceOnUse" x="6.8" y="1.2" width="23.7" height="23.7">
			<feColorMatrix  type="matrix" values="1 0 0 0 0  0 1 0 0 0  0 0 1 0 0  0 0 0 1 0"/>
		</filter>
	</defs>
	
		<mask maskUnits="userSpaceOnUse" x="6.8" y="1.2" width="23.7" height="23.7" id="git-b_00000108278513630924043880000014441394190539519160_">
		<g class="st0">
			<polygon id="git-a_00000122721499024455484440000012864464920801038992_" class="st1" points="6.8,1.2 30.5,1.2 30.5,25 6.8,25 
							"/>
		</g>
	</mask>
	<path class="st2" d="M30.1,12L19.7,1.7c-0.6-0.6-1.6-0.6-2.2,0l-2.2,2.2l2.7,2.7C18.7,6.3,19.5,6.5,20,7c0.5,0.5,0.7,1.2,0.4,1.9
		l2.6,2.6c0.6-0.2,1.4-0.1,1.9,0.4c0.7,0.7,0.7,1.9,0,2.6c-0.7,0.7-1.9,0.7-2.6,0c-0.5-0.5-0.7-1.3-0.4-2l-2.5-2.5v6.5
		c0.2,0.1,0.3,0.2,0.5,0.3c0.7,0.7,0.7,1.9,0,2.6c-0.7,0.7-1.9,0.7-2.6,0c-0.7-0.7-0.7-1.9,0-2.6c0.2-0.2,0.4-0.3,0.6-0.4V10
		c-0.2-0.1-0.4-0.2-0.6-0.4c-0.5-0.5-0.7-1.3-0.4-2l-2.7-2.7L7.2,12c-0.6,0.6-0.6,1.6,0,2.2l10.4,10.4c0.6,0.6,1.6,0.6,2.2,0
		l10.3-10.3C30.7,13.6,30.7,12.6,30.1,12"/>
</g>
<g>
	<path class="st3" d="M8,32h30v6H2v-6V2h6V32z"/>
</g>
</svg>
