<?xml version="1.0" encoding="utf-8"?>
<!-- Generator: Adobe Illustrator 26.4.1, SVG Export Plug-In . SVG Version: 6.00 Build 0)  -->
<svg version="1.1" id="图层_1" xmlns="http://www.w3.org/2000/svg" xmlns:xlink="http://www.w3.org/1999/xlink" x="0px" y="0px"
	 viewBox="0 0 40 40" style="enable-background:new 0 0 40 40;" xml:space="preserve">
<style type="text/css">
	.st0{fill-rule:evenodd;clip-rule:evenodd;fill:#DE4C36;}
	.st1{fill-rule:evenodd;clip-rule:evenodd;fill:#AFB1B3;}
</style>
<g transform="translate(4 4)">
	<path class="st0" d="M30.1,12L19.7,1.7c-0.6-0.6-1.6-0.6-2.2,0l-2.2,2.2L18,6.6c0.7-0.3,1.5-0.1,2,0.4s0.7,1.2,0.4,1.9l2.6,2.6
		c0.6-0.2,1.4-0.1,1.9,0.4c0.7,0.7,0.7,1.9,0,2.6c-0.7,0.7-1.9,0.7-2.6,0c-0.5-0.5-0.7-1.3-0.4-2L19.4,10v6.5
		c0.2,0.1,0.3,0.2,0.5,0.3c0.7,0.7,0.7,1.9,0,2.6s-1.9,0.7-2.6,0s-0.7-1.9,0-2.6c0.2-0.2,0.4-0.3,0.6-0.4V10
		c-0.2-0.1-0.4-0.2-0.6-0.4c-0.5-0.5-0.7-1.3-0.4-2l-2.7-2.7l-7,7.1c-0.6,0.6-0.6,1.6,0,2.2l10.4,10.4c0.6,0.6,1.6,0.6,2.2,0
		l10.3-10.3C30.7,13.6,30.7,12.6,30.1,12"/>
</g>
<path class="st1" d="M8,32h30v6H2v-6V2h6V32z"/>
</svg>
